<svg width="115" height="115" xmlns="http://www.w3.org/2000/svg" xmlns:xlink="http://www.w3.org/1999/xlink" overflow="hidden"><defs><clipPath id="clip0"><rect x="191" y="117" width="115" height="115"/></clipPath><clipPath id="clip1"><rect x="192" y="118" width="113" height="113"/></clipPath><clipPath id="clip2"><rect x="192" y="118" width="113" height="113"/></clipPath><clipPath id="clip3"><rect x="192" y="118" width="113" height="142"/></clipPath></defs><g clip-path="url(#clip0)" transform="translate(-191 -117)"><g clip-path="url(#clip1)"><g clip-path="url(#clip2)"><g clip-path="url(#clip3)"><path d="M192 174.5 192 118 248.5 118 305 118 305 174.5 305 231 248.5 231 192 231 192 174.5ZM301.138 174.445 301.138 121.862 248.555 121.862 195.973 121.862 195.973 174.445 195.973 227.027 248.555 227.027 301.138 227.027 301.138 174.445ZM216.525 206.363 215.175 205.01 230.403 189.783C238.778 181.408 245.631 174.506 245.631 174.445 245.631 174.384 238.778 167.481 230.402 159.105L215.172 143.876 216.553 142.498 217.934 141.12 233.217 156.403 248.5 171.686 263.783 156.403 279.066 141.12 280.447 142.498 281.828 143.876 266.598 159.105C258.222 167.481 251.369 174.384 251.369 174.445 251.369 174.505 258.222 181.408 266.598 189.784L281.828 205.014 280.447 206.392 279.066 207.769 263.783 192.487 248.5 177.204 233.244 192.46C224.853 200.851 217.962 207.716 217.931 207.716 217.9 207.716 217.267 207.107 216.525 206.363Z"/><text font-family="Arial,Arial_MSFontService,sans-serif" font-weight="700" font-size="5" transform="matrix(0.0882813 0 0 0.0882813 192 232)">Created by iconeu<tspan x="0" y="11.3274">from the Noun Project</tspan></text></g></g></g></g></svg>