<svg width="115" height="115" xmlns="http://www.w3.org/2000/svg" xmlns:xlink="http://www.w3.org/1999/xlink" overflow="hidden"><defs><clipPath id="clip0"><rect x="345" y="117" width="115" height="115"/></clipPath><clipPath id="clip1"><rect x="346" y="118" width="113" height="113"/></clipPath><clipPath id="clip2"><rect x="346" y="118" width="113" height="113"/></clipPath><clipPath id="clip3"><rect x="346" y="118" width="113" height="142"/></clipPath></defs><g clip-path="url(#clip0)" transform="translate(-345 -117)"><g clip-path="url(#clip1)"><g clip-path="url(#clip2)"><g clip-path="url(#clip3)"><path d="M346 174.5 346 118 402.5 118 459 118 459 174.5 459 231 402.5 231 346 231 346 174.5ZM455.138 174.445 455.138 121.862 402.555 121.862 349.973 121.862 349.973 174.445 349.973 227.027 402.555 227.027 455.138 227.027 455.138 174.445ZM370.525 206.363 369.175 205.01 384.403 189.783C392.778 181.408 399.631 174.506 399.631 174.445 399.631 174.384 392.778 167.481 384.402 159.105L369.172 143.876 370.553 142.498 371.934 141.12 387.217 156.403 402.5 171.686 417.783 156.403 433.066 141.12 434.447 142.498 435.828 143.876 420.598 159.105C412.222 167.481 405.369 174.384 405.369 174.445 405.369 174.505 412.222 181.408 420.598 189.784L435.828 205.014 434.447 206.392 433.066 207.769 417.783 192.487 402.5 177.204 387.244 192.46C378.853 200.851 371.962 207.716 371.931 207.716 371.9 207.716 371.267 207.107 370.525 206.363Z"/><text font-family="Arial,Arial_MSFontService,sans-serif" font-weight="700" font-size="5" transform="matrix(0.0882813 0 0 0.0882813 346 232)">Created by iconeu<tspan x="0" y="11.3274">from the Noun Project</tspan></text></g></g></g><rect x="365.5" y="138.5" width="75" height="73" stroke="#FFFFFF" stroke-width="1.33333" stroke-miterlimit="8" fill="#FFFFFF"/></g></svg>