<svg width="114" height="115" xmlns="http://www.w3.org/2000/svg" xmlns:xlink="http://www.w3.org/1999/xlink" overflow="hidden"><defs><clipPath id="clip0"><rect x="37" y="117" width="114" height="115"/></clipPath><clipPath id="clip1"><rect x="37" y="118" width="114" height="113"/></clipPath><clipPath id="clip2"><rect x="37" y="118" width="114" height="113"/></clipPath><clipPath id="clip3"><rect x="37" y="118" width="114" height="142"/></clipPath></defs><g clip-path="url(#clip0)" transform="translate(-37 -117)"><g clip-path="url(#clip1)"><g clip-path="url(#clip2)"><g clip-path="url(#clip3)"><path d="M-370.173 110.207-370.173 53.7067-313.673 53.7067-257.173 53.7067-257.173 110.207-257.173 166.707-313.673 166.707-370.173 166.707-370.173 110.207ZM-261.035 110.151-261.035 57.569-313.618 57.569-366.2 57.569-366.2 110.151-366.2 162.734-313.618 162.734-261.035 162.734-261.035 110.151ZM-315.107 111.586-347.054 79.6398-345.674 78.2604-344.295 76.881-312.349 108.827-280.402 140.774-281.782 142.153-283.161 143.532-315.107 111.586Z" transform="matrix(1.00885 0 -0 1 410.449 64.2933)"/><text font-family="Arial,Arial_MSFontService,sans-serif" font-weight="700" font-size="5" transform="matrix(0.0890625 0 0 0.0882813 37 232)">Created by iconeu<tspan x="0" y="11.3274">from the Noun Project</tspan></text></g></g></g></g></svg>